<svg class="icon" viewBox="0 0 1024 1024" xmlns="http://www.w3.org/2000/svg" width="200" height="200"><defs><style/></defs><path d="M330.667 768a53.333 53.333 0 110 106.667 53.333 53.333 0 010-106.667zm384 0a53.333 53.333 0 110 106.667 53.333 53.333 0 010-106.667zM149.504 160a96 96 0 0193.93 76.181l13.206 62.486h.213L299.733 504l32.491 157.333h402.219l61.653-298.666H313.813l-13.376-64h495.68a64 64 0 0162.678 76.949L797.14 674.283a64 64 0 01-62.698 51.05H332.224a64 64 0 01-62.677-51.05L208.96 380.864l-.405.085-27.734-131.562A32 32 0 00149.504 224H94.763v-64zm415.83 245.333V480H640v64h-74.667v74.667h-64V544h-74.666v-64h74.666v-74.667h64z"/></svg>