<svg class="icon" viewBox="0 0 1024 1024" xmlns="http://www.w3.org/2000/svg" width="200" height="200"><defs><style/></defs><path d="M175.893 769.024l146.603-171.05a277.026 277.026 0 0060.117 28.202l-158.122 184.49h330.176v64H224.49a64 64 0 01-48.598-105.642l146.603-171.05zM746.667 640v85.333H832v64h-85.333v85.334h-64v-85.334h-85.334v-64h85.334V640h64zM469.333 149.333c117.824 0 213.334 95.51 213.334 213.334S587.157 576 469.333 576 256 480.49 256 362.667s95.51-213.334 213.333-213.334zm0 64a149.333 149.333 0 100 298.667 149.333 149.333 0 000-298.667z"/></svg>