<svg class="icon" viewBox="0 0 1024 1024" xmlns="http://www.w3.org/2000/svg" width="200" height="200"><defs><style/></defs><path d="M490.667 533.333v256a64 64 0 01-64 64h-192a64 64 0 01-64-64v-192a64 64 0 0164-64h256zm298.666 0a64 64 0 0164 64v192a64 64 0 01-64 64h-192a64 64 0 01-64-64v-256h256zm-362.666 64h-192v192h192v-192zm362.666 0h-192v192h192v-192zM426.667 170.667a64 64 0 0164 64v256h-256a64 64 0 01-64-64v-192a64 64 0 0164-64h192zm266.666 0a160 160 0 110 320 160 160 0 010-320zm-266.666 64h-192v192h192v-192zm266.666 0a96 96 0 100 192 96 96 0 000-192z"/></svg>