<svg class="icon" viewBox="0 0 1024 1024" xmlns="http://www.w3.org/2000/svg" width="200" height="200"><defs><style/></defs><path d="M512 234.667c131.947 0 252.245 80.512 360.875 241.536a64 64 0 012.41 67.712l-2.41 3.882-6.059 8.854C759.786 711.765 641.493 789.333 512 789.333c-131.947 0-252.245-80.512-360.875-241.536a64 64 0 01-2.41-67.712l2.41-3.882 6.059-8.854C264.214 312.235 382.507 234.667 512 234.667zm0 64c-105.77 0-206.037 65.749-301.952 204.757L204.181 512l5.888 8.597c96 139.051 196.246 204.736 301.931 204.736 105.77 0 206.037-65.749 301.952-204.757l5.867-8.576-5.888-8.597C717.93 364.352 617.685 298.667 512 298.667zm0 77.482a141.483 141.483 0 110 282.944 141.483 141.483 0 010-282.944zm0 64a77.483 77.483 0 100 154.944 77.483 77.483 0 000-154.944z"/></svg>