<svg class="icon" viewBox="0 0 1024 1024" xmlns="http://www.w3.org/2000/svg" width="200" height="200"><defs><style/></defs><path d="M644.8 581.568l160.64 187.456a64 64 0 01-48.597 105.643H267.157a64 64 0 01-48.597-105.643l160.661-187.435a253.813 253.813 0 0061.206 26.944l-173.27 202.134H480v-128h64v128h212.843l-173.27-202.134a254.613 254.613 0 0061.227-26.965zM512 149.333c117.824 0 213.333 95.51 213.333 213.334S629.824 576 512 576s-213.333-95.51-213.333-213.333S394.176 149.333 512 149.333zm0 64A149.333 149.333 0 10512 512a149.333 149.333 0 000-298.667z"/></svg>