<svg class="icon" viewBox="0 0 1024 1024" xmlns="http://www.w3.org/2000/svg" width="200" height="200"><defs><style/></defs><path d="M494.123 277.333a98.027 98.027 0 0198.026 98.027V561.6h166.614a64 64 0 0164 64v249.643h-446.23l-126.72-108.63a103.147 103.147 0 01-14.464-141.44l3.947-4.778a103.381 103.381 0 01141.93-13.014l4.566 3.84 10.347 9.174V375.36a98.027 98.027 0 0197.984-98.027zm0 64c-18.774 0-34.006 15.232-34.006 34.027v387.563L343.253 659.029l-3.029-2.432a39.381 39.381 0 00-52.779 5.952l-2.453 3.094a39.147 39.147 0 006.443 52.394l95.893 82.198 78.677 74.432h292.907v-85.334h-.15V625.58H528.15V375.34c0-18.774-15.232-34.006-34.026-34.006zm-3.456-192C608.49 149.333 704 244.843 704 362.667a212.693 212.693 0 01-63.595 151.957V362.667H640a149.333 149.333 0 10-298.539 6.4l.022 146.112a212.693 212.693 0 01-64.15-152.512c0-117.824 95.51-213.334 213.334-213.334z"/></svg>