<svg class="icon" viewBox="0 0 1024 1024" xmlns="http://www.w3.org/2000/svg" width="200" height="200"><defs><style/></defs><path d="M528.49 151.488l277.334 73.963a64 64 0 0147.51 61.845v350.741a64 64 0 01-26.155 51.627l-277.334 203.37a64 64 0 01-75.69 0L196.82 689.644a64 64 0 01-26.154-51.606V287.296a64 64 0 0147.509-61.845l277.333-73.963a64 64 0 0132.982 0zM512 213.333l-277.333 73.963v350.741L512 841.43l277.333-203.392V287.296L512 213.333zm126.827 124.374l45.013 45.461-229.12 226.816L340.053 495.36l45.227-45.27 69.675 69.633 183.872-182.038z"/></svg>