<svg class="icon" viewBox="0 0 1024 1024" xmlns="http://www.w3.org/2000/svg" width="200" height="200"><defs><style/></defs><path d="M393.301 203.072l3.584 1.75 77.654 41.087A64 64 0 01508.267 296l.298 4.267 4.374 126.336 24.192 25.045 62.549-62.507-46.933-46.933a64 64 0 010-90.517l31.68-31.723a64 64 0 0190.517 0L861.76 406.784a64 64 0 0118.261 53.141l-9.642 77.696a53.525 53.525 0 01-90.966 31.254l-43.946-43.99-64.918 64.854 118.507 122.666a64 64 0 011.792 87.04l-2.56 2.688-44.8 44.843a64 64 0 01-87.808 1.067l-2.71-2.646L536 724.31 414.827 845.504a64 64 0 01-90.496 0l-45.248-45.227a64 64 0 010-90.538l123.52-123.52-24.214-25.067-122.282-11.307a64 64 0 01-46.571-27.093l-2.347-3.648-44.97-74.71a64 64 0 016.954-75.477l2.603-2.773 59.947-59.947 72.618 72.662 22.635-22.614-72.64-72.704 67.35-67.392a64 64 0 0171.615-13.077zm-26.346 58.325l-22.144 22.144 72.64 72.683-113.11 113.173-72.64-72.682-14.656 14.677 44.971 74.71 145.92 13.525 128.853 133.397 44.587 45.93-.128.107 117.76 121.878 44.032-44.054-293.205-303.509-5.227-150.89-77.653-41.089zm80.106 370.859l-122.73 122.752 45.248 45.248L491.52 678.293l-44.459-46.037zm182.614-367.019l-31.68 31.702 92.202 92.16-108.586 108.586 44.48 46.038 109.376-109.355 74.026 74.09 7.019-56.405-186.816-186.816z"/></svg>